<?xml version="1.0"?>
<svg xmlns="http://www.w3.org/2000/svg" id="outline" viewBox="0 0 512 512" width="512" height="512"><path d="M217.9541,192a60.82515,60.82515,0,0,0,43.292-17.93164,45.30808,45.30808,0,0,1,33.65137-13.21484l168.82324,6.25195a31.12682,31.12682,0,1,0,0-62.21094l-168.82324,6.25195a45.33417,45.33417,0,0,1-33.65137-13.21484A60.82515,60.82515,0,0,0,217.9541,80H112a8.00039,8.00039,0,0,0-8,8v96a8.00039,8.00039,0,0,0,8,8h24v78.02417A88.14355,88.14355,0,0,0,80,352H96a72,72,0,0,1,144,0v16H224V352a56,56,0,0,0-112,0h16a40,40,0,0,1,80,0v16H192V352a24,24,0,0,0-48,0v8h16v-8a8,8,0,0,1,16,0v16H24a7.99951,7.99951,0,0,0-7.15527,11.57812A94.316,94.316,0,0,0,101.666,432H410.334a94.316,94.316,0,0,0,84.82129-52.42188A7.99951,7.99951,0,0,0,488,368H448V328a87.95533,87.95533,0,0,0-147.04883-65.19141l-7.23926-2.06836A84.96852,84.96852,0,0,0,216,277.18872V192Zm31.97754-82.75391a61.35874,61.35874,0,0,0,45.55762,17.88868l168.82324-6.252a15.12753,15.12753,0,1,1,0,30.23438l-168.82324-6.252a61.38234,61.38234,0,0,0-45.55762,17.88868A44.92377,44.92377,0,0,1,217.9541,176H216V96h1.9541A44.92377,44.92377,0,0,1,249.93164,109.24609ZM136,144H120V128h16Zm0-48v16H120V96Zm-16,80V160h16v16Zm32,89.46191V96h48V270.02417a87.22635,87.22635,0,0,0-16-4.56226V112H168V264A88.14813,88.14813,0,0,0,152,265.46191ZM410.334,416H101.666a78.33637,78.33637,0,0,1-63.44141-32H473.77539A78.33637,78.33637,0,0,1,410.334,416ZM289.02051,276.0459A87.52476,87.52476,0,0,0,272,328h16a72,72,0,0,1,144,0v40H416V328a56,56,0,0,0-112,0v16h16V328a40,40,0,0,1,80,0v40H384V328a24,24,0,0,0-48,0v24h16V328a8,8,0,0,1,16,0v40H256V352a87.765,87.765,0,0,0-27.78442-64.10913A68.95292,68.95292,0,0,1,289.02051,276.0459Z"/></svg>
