<?xml version="1.0" standalone="no"?>
<!DOCTYPE svg PUBLIC "-//W3C//DTD SVG 20010904//EN"
 "http://www.w3.org/TR/2001/REC-SVG-20010904/DTD/svg10.dtd">
<svg version="1.0" xmlns="http://www.w3.org/2000/svg"
 width="512.000000pt" height="512.000000pt" viewBox="0 0 512.000000 512.000000"
 preserveAspectRatio="xMidYMid meet">

<g transform="translate(0.000000,512.000000) scale(0.100000,-0.100000)"
fill="#000000" stroke="none">
<path d="M2320 5012 c0 -5 26 -15 58 -24 89 -25 169 -43 349 -77 29 -5 80 -17
114 -25 33 -9 70 -16 82 -16 11 0 34 -4 51 -10 17 -5 72 -19 121 -31 104 -24
211 -57 345 -106 52 -19 143 -52 202 -73 59 -21 140 -53 180 -71 91 -40 110
-48 228 -95 101 -40 173 -76 205 -103 11 -9 39 -30 62 -45 24 -16 61 -48 83
-72 36 -40 40 -48 40 -98 0 -50 -3 -57 -36 -84 -52 -43 -121 -62 -291 -80
-132 -14 -176 -14 -335 -3 -260 18 -470 38 -708 67 -69 9 -159 19 -200 24 -41
5 -113 14 -160 20 -385 50 -680 23 -856 -77 -87 -49 -88 -158 -2 -224 44 -34
212 -106 279 -120 30 -6 72 -15 94 -20 64 -15 154 -30 235 -39 41 -5 104 -14
140 -20 36 -5 97 -15 135 -20 39 -5 106 -13 150 -19 159 -21 282 -43 400 -71
148 -35 166 -40 270 -73 166 -53 261 -133 272 -230 6 -49 -16 -102 -44 -111
-10 -2 -81 -9 -158 -15 -77 -6 -167 -13 -200 -15 -33 -3 -82 -8 -108 -12 -47
-7 -48 -7 -42 -38 15 -74 37 -86 195 -106 76 -10 103 -20 259 -97 146 -72 184
-96 241 -149 75 -71 134 -145 172 -214 44 -80 150 -230 159 -224 18 10 8 66
-30 183 -38 114 -79 188 -143 253 -10 10 -18 22 -18 27 0 5 -46 48 -102 96
-119 102 -151 142 -146 188 4 38 8 39 223 67 214 28 239 34 284 63 54 36 55
71 5 127 -70 78 -208 142 -449 208 -145 40 -229 66 -315 98 -25 9 -88 29 -140
44 -164 48 -307 112 -361 162 -47 43 -93 114 -86 132 4 9 36 18 92 26 120 17
371 7 730 -30 61 -6 166 -15 235 -20 69 -5 184 -14 255 -20 140 -13 310 -8
341 8 10 6 31 13 47 17 15 3 48 25 73 50 l46 44 -4 88 c-7 128 -52 201 -172
281 -39 25 -84 57 -101 71 -27 22 -241 128 -325 161 -19 8 -58 27 -87 42 -51
28 -145 62 -213 78 -19 5 -51 13 -70 18 -152 43 -194 54 -255 68 -38 9 -97 26
-130 38 -33 13 -80 28 -105 35 -25 8 -67 22 -95 32 -58 21 -110 33 -215 49
-41 6 -94 15 -118 20 -23 6 -56 10 -73 10 -16 0 -49 4 -72 9 -23 5 -75 14
-114 20 -178 27 -211 33 -252 47 -48 15 -121 19 -121 6z"/>
<path d="M2155 2985 c-74 -11 -102 -18 -195 -44 -69 -19 -86 -27 -156 -69
-127 -76 -120 -61 -139 -332 -20 -282 -19 -279 -48 -284 -12 -2 -56 -11 -97
-20 -41 -8 -95 -18 -120 -21 -25 -4 -72 -11 -105 -16 -33 -5 -91 -14 -130 -19
-38 -5 -101 -14 -140 -20 -265 -41 -348 -51 -357 -42 -22 22 -31 128 -20 221
15 116 15 178 2 186 -5 3 -29 -3 -54 -15 -47 -21 -93 -77 -114 -140 -16 -45
-15 -207 2 -262 16 -53 12 -62 -28 -72 -79 -19 -259 -125 -308 -181 -114 -129
-118 -138 -118 -281 0 -156 14 -205 90 -324 16 -25 38 -61 49 -80 11 -19 56
-73 101 -120 44 -47 101 -106 126 -132 25 -27 69 -66 98 -87 29 -21 66 -52 82
-68 29 -28 86 -72 204 -156 36 -25 77 -55 91 -66 37 -29 173 -111 249 -150 36
-19 84 -47 108 -63 23 -16 68 -40 100 -54 100 -43 107 -46 124 -55 10 -5 27
-9 37 -9 11 0 23 -4 26 -10 3 -5 15 -10 26 -10 10 0 27 -4 37 -10 39 -21 296
-101 374 -115 45 -9 133 -21 193 -26 116 -11 383 -5 432 10 15 5 55 15 88 22
55 12 139 42 226 82 19 9 63 28 99 43 104 42 216 101 252 132 18 15 59 45 90
65 31 21 63 43 70 50 7 7 27 23 45 35 18 13 53 47 79 78 60 70 48 88 -21 34
-28 -22 -57 -40 -66 -40 -8 0 -26 -11 -39 -25 -13 -14 -30 -25 -37 -25 -7 0
-23 -5 -36 -12 -12 -6 -29 -14 -37 -18 -8 -4 -26 -13 -40 -20 -14 -7 -33 -17
-42 -22 -18 -8 -39 -19 -78 -38 -11 -5 -25 -10 -32 -10 -7 0 -24 -9 -38 -20
-14 -11 -31 -20 -39 -20 -7 0 -31 -16 -52 -35 -22 -19 -47 -35 -56 -35 -9 0
-25 -8 -35 -17 -28 -25 -87 -43 -145 -43 -28 0 -55 -4 -58 -10 -4 -6 -67 -10
-155 -10 -88 0 -151 -4 -155 -10 -8 -13 -332 -13 -340 0 -3 6 -21 10 -40 10
-19 0 -37 5 -40 10 -3 6 -28 10 -55 10 -27 0 -52 4 -55 10 -3 5 -16 10 -27 10
-12 0 -37 4 -55 10 -18 5 -50 15 -70 21 -38 10 -74 24 -105 40 -10 5 -24 9
-32 9 -7 0 -19 6 -25 13 -6 8 -30 20 -53 27 -24 7 -52 22 -64 32 -11 10 -27
18 -35 18 -9 0 -40 18 -69 40 -29 22 -61 40 -70 40 -9 0 -27 12 -41 26 -39 43
-221 178 -254 189 -16 6 -36 22 -43 37 -7 15 -40 48 -72 73 -33 26 -60 52 -60
58 0 7 -18 25 -40 40 -22 16 -40 34 -40 40 0 7 -23 36 -50 66 l-50 54 0 89 0
89 233 -4 c145 -2 249 -8 277 -16 25 -7 65 -15 90 -18 25 -3 49 -9 55 -14 5
-5 21 -9 36 -9 15 0 32 -7 39 -15 7 -9 29 -15 54 -15 23 0 46 -4 51 -9 6 -5
37 -12 70 -15 109 -10 160 -18 170 -27 5 -5 41 -9 80 -9 39 0 75 -4 80 -9 19
-19 174 -23 964 -27 535 -3 808 -1 815 6 5 5 35 10 66 10 31 0 60 4 65 9 6 5
37 12 70 15 84 7 134 17 141 27 3 5 27 9 54 9 27 0 52 5 55 10 3 6 19 10 34
10 16 0 34 7 41 15 8 10 30 15 61 15 80 0 271 56 419 122 25 12 64 29 87 39
52 22 188 117 227 158 24 26 30 42 34 91 7 100 -2 126 -71 192 -79 75 -235
153 -439 219 -32 10 -66 23 -77 28 -21 12 -113 38 -176 51 -22 5 -60 14 -85
20 -25 6 -70 16 -100 22 -30 5 -75 14 -100 18 -256 50 -335 62 -570 85 -91 9
-173 19 -183 23 -16 6 -18 28 -22 239 -3 155 -8 240 -16 255 -28 52 -66 92
-128 132 -88 58 -182 86 -381 116 -87 13 -346 10 -445 -5z m535 -121 c138 -35
186 -55 239 -100 58 -48 32 -102 -71 -152 -121 -57 -120 -57 -448 -57 -319 0
-355 4 -470 48 -75 28 -92 40 -114 81 -18 34 -18 35 4 66 31 44 111 81 190 87
37 3 82 15 105 27 35 18 63 21 225 26 190 5 228 2 340 -26z m-1101 -780 l31
-6 0 -160 c0 -91 4 -168 10 -179 22 -39 170 -96 305 -115 28 -3 58 -11 69 -16
33 -17 246 -38 396 -38 146 0 344 19 390 38 14 6 52 16 85 22 123 26 216 64
255 105 24 26 25 32 28 186 l3 159 83 0 c45 0 107 -4 137 -9 30 -6 88 -15 129
-21 41 -7 89 -16 105 -21 17 -6 64 -16 105 -25 41 -8 93 -19 115 -24 131 -30
223 -53 245 -60 14 -4 45 -13 70 -20 105 -30 183 -62 278 -115 93 -52 102 -59
118 -102 16 -41 16 -50 3 -86 -12 -34 -24 -45 -77 -74 -35 -18 -71 -33 -81
-33 -9 0 -21 -4 -27 -8 -9 -8 -47 -20 -131 -41 -21 -6 -74 -19 -118 -31 -137
-36 -199 -49 -350 -70 -38 -6 -99 -15 -135 -20 -36 -6 -105 -15 -155 -20 -49
-5 -135 -14 -190 -20 -55 -6 -145 -15 -200 -21 -55 -6 -239 -12 -410 -15 -195
-3 -318 -9 -332 -16 -14 -7 -45 -8 -85 -4 -140 15 -293 35 -438 56 -41 6 -113
15 -160 20 -47 5 -119 14 -160 21 -41 6 -104 15 -140 19 -226 27 -337 44 -350
55 -16 13 -52 26 -115 44 -22 6 -71 20 -110 31 -38 12 -88 26 -110 32 -220 59
-290 127 -239 234 27 56 162 139 194 119 5 -3 10 -37 10 -75 0 -43 4 -70 12
-72 21 -7 99 24 111 46 6 11 14 55 17 96 l5 74 35 12 c46 15 95 28 205 54 50
11 104 25 120 31 85 30 187 50 305 59 52 4 98 7 101 8 4 1 21 -1 38 -4z"/>
<path d="M4780 1283 c-58 -25 -99 -61 -125 -111 -31 -60 -195 -238 -305 -331
-47 -39 -98 -84 -115 -99 -16 -16 -59 -49 -95 -75 -36 -26 -96 -70 -135 -98
-70 -52 -214 -149 -220 -149 -7 0 -150 -84 -165 -96 -15 -13 -214 -114 -224
-114 -3 0 -29 -11 -58 -24 -29 -13 -100 -43 -158 -67 -58 -23 -107 -44 -109
-46 -26 -20 120 1 244 36 301 84 441 133 570 202 22 12 74 39 115 61 125 66
240 135 345 209 55 38 123 85 150 104 28 19 66 49 85 67 19 19 60 53 90 76 93
73 360 335 360 354 0 21 -76 75 -142 100 -56 21 -62 21 -108 1z"/>
</g>
</svg>
