<?xml version="1.0" encoding="UTF-8" standalone="no"?>
<!-- Generator: Adobe Illustrator 15.0.0, SVG Export Plug-In . SVG Version: 6.00 Build 0)  -->

<svg
   xmlns:dc="http://purl.org/dc/elements/1.1/"
   xmlns:cc="http://creativecommons.org/ns#"
   xmlns:rdf="http://www.w3.org/1999/02/22-rdf-syntax-ns#"
   xmlns:svg="http://www.w3.org/2000/svg"
   xmlns="http://www.w3.org/2000/svg"
   xmlns:sodipodi="http://sodipodi.sourceforge.net/DTD/sodipodi-0.dtd"
   xmlns:inkscape="http://www.inkscape.org/namespaces/inkscape"
   version="1.1"
   id="Layer_1"
   x="0px"
   y="0px"
   width="140px"
   height="35px"
   viewBox="0 0 140 35"
   enable-background="new 0 0 140 35"
   xml:space="preserve"
   sodipodi:docname="logo_sticky.svg"
   inkscape:version="0.92.4 (5da689c313, 2019-01-14)"><metadata
   id="metadata29"><rdf:RDF><cc:Work
       rdf:about=""><dc:format>image/svg+xml</dc:format><dc:type
         rdf:resource="http://purl.org/dc/dcmitype/StillImage" /></cc:Work></rdf:RDF></metadata><defs
   id="defs27" /><sodipodi:namedview
   pagecolor="#ffffff"
   bordercolor="#666666"
   borderopacity="1"
   objecttolerance="10"
   gridtolerance="10"
   guidetolerance="10"
   inkscape:pageopacity="0"
   inkscape:pageshadow="2"
   inkscape:window-width="2560"
   inkscape:window-height="1475"
   id="namedview25"
   showgrid="false"
   inkscape:zoom="5.6285714"
   inkscape:cx="144.32741"
   inkscape:cy="17.5"
   inkscape:window-x="-13"
   inkscape:window-y="-13"
   inkscape:window-maximized="1"
   inkscape:current-layer="Layer_1" />
<path
   fill="#3578FA"
   d="M15.104,0c1.905,0,3.724,0.375,5.384,1.053C12.713,2.314,6.775,9.06,6.775,17.19  c0,4.053,1.476,7.76,3.918,10.619c-1.75-0.568-3.351-1.469-4.73-2.623L-0.5,26.828l2.297-7.464c-0.61-1.587-0.946-3.312-0.946-5.112  C0.852,6.382,7.234,0,15.104,0z"
   id="path2" />
<path
   fill="#3578FA"
   d="M23.215,16.079c0.877,0,1.588,0.711,1.588,1.587s-0.711,1.586-1.588,1.586c-0.876,0-1.587-0.71-1.587-1.586  S22.339,16.079,23.215,16.079L23.215,16.079z"
   id="path4" />
<path
   fill="#3578FA"
   d="M18.901,16.079c0.876,0,1.587,0.711,1.587,1.587s-0.71,1.586-1.587,1.586s-1.587-0.71-1.587-1.586  S18.025,16.079,18.901,16.079L18.901,16.079z"
   id="path6" />
<path
   fill="#3578FA"
   d="M27.529,16.079c0.877,0,1.587,0.711,1.587,1.587s-0.71,1.586-1.587,1.586c-0.876,0-1.587-0.71-1.587-1.586  S26.653,16.079,27.529,16.079L27.529,16.079z"
   id="path8" />
<path
   fill="#3578FA"
   d="M37.468,17.195c0-7.87-6.382-14.252-14.253-14.252c-7.869,0-14.251,6.382-14.251,14.252  c0,7.872,6.382,14.253,14.251,14.253c1.353,0,2.661-0.189,3.899-0.54L34.562,35l-1.121-7.879  C35.934,24.555,37.468,21.055,37.468,17.195z M23.215,25.984c-4.853,0-8.788-3.938-8.788-8.792c0-4.852,3.935-8.788,8.788-8.788  s8.789,3.936,8.789,8.788C32.003,22.048,28.068,25.984,23.215,25.984z"
   id="path10" />

<text
   xml:space="preserve"
   style="font-style:normal;font-weight:normal;font-size:40px;line-height:1.25;font-family:sans-serif;letter-spacing:0px;word-spacing:0px;fill:#000000;fill-opacity:1;stroke:none"
   x="39.796955"
   y="24.873098"
   id="text33"><tspan
     sodipodi:role="line"
     id="tspan31"
     x="39.796955"
     y="24.873098"
     style="font-size:20px">食客之家</tspan></text>

</svg>