<svg version="1.0" xmlns="http://www.w3.org/2000/svg"
 width="512.000000pt" height="512.000000pt" viewBox="0 0 512.000000 512.000000"
 preserveAspectRatio="xMidYMid meet">

<g transform="translate(0.000000,512.000000) scale(0.100000,-0.100000)"
fill="#000000" stroke="none">
<path d="M4410 4611 c-14 -5 -47 -13 -75 -20 -27 -6 -99 -22 -160 -36 -60 -14
-159 -37 -220 -51 -60 -13 -128 -29 -150 -34 -22 -5 -71 -17 -110 -25 -38 -9
-79 -20 -90 -25 -18 -9 -87 -26 -265 -66 -36 -8 -83 -19 -105 -24 -22 -5 -89
-21 -150 -35 -60 -14 -128 -30 -150 -35 -22 -5 -74 -17 -115 -26 -151 -33
-376 -85 -406 -94 -17 -6 -41 -10 -53 -10 -12 0 -31 -5 -41 -10 -12 -7 -21 -7
-25 0 -20 32 192 230 247 230 11 0 33 13 49 29 36 36 39 86 8 125 -36 46 -106
33 -236 -42 -55 -32 -191 -191 -225 -262 -29 -60 -32 -76 -38 -200 -3 -74 -5
-358 -4 -630 1 -275 -2 -503 -7 -512 -7 -13 -20 -17 -55 -14 l-45 3 1 389 c1
403 -3 444 -40 464 -27 14 -73 12 -96 -4 -18 -14 -19 -33 -24 -433 l-5 -418
-35 0 c-76 0 -70 -51 -70 587 l0 571 31 62 c18 36 53 84 87 117 51 50 83 70
187 119 82 39 60 169 -29 169 -130 0 -356 -203 -425 -382 -14 -38 -16 -115
-19 -638 -2 -411 -6 -596 -14 -601 -5 -4 -31 -5 -57 -4 l-46 3 -5 447 -5 447
-24 19 c-13 10 -33 19 -46 19 -13 0 -33 -9 -46 -19 l-24 -19 -5 -448 -5 -448
-45 -1 -45 0 -3 504 -2 504 25 56 c14 31 38 73 53 94 35 52 132 125 195 148
79 28 102 66 76 122 -13 29 -48 47 -90 47 -77 0 -231 -105 -321 -220 -23 -30
-50 -63 -59 -73 -17 -18 -43 -101 -57 -177 -7 -41 -11 -45 -42 -52 -19 -4 -53
-11 -75 -16 -22 -5 -85 -19 -140 -32 -55 -12 -115 -28 -133 -36 -41 -17 -57
-55 -42 -99 21 -64 68 -68 260 -20 58 14 120 28 137 32 l33 6 0 -175 0 -175
-42 -11 c-24 -6 -72 -18 -108 -26 -263 -61 -274 -65 -283 -114 -11 -56 34
-111 90 -112 17 0 34 4 37 9 3 5 16 11 28 14 13 2 76 16 141 31 65 14 123 26
128 26 15 0 12 -250 -3 -250 -7 -1 -153 -2 -324 -3 -372 -2 -354 3 -354 -111
0 -39 5 -125 10 -191 8 -95 14 -123 28 -133 45 -34 101 -21 127 28 10 20 11
45 4 113 -6 49 -9 96 -7 105 3 15 154 17 2076 17 1141 0 2077 -2 2082 -5 9 -6
-14 -259 -30 -335 -49 -221 -101 -395 -125 -415 -8 -7 -15 -17 -15 -22 0 -9
-82 -177 -132 -269 -105 -195 -383 -477 -623 -630 -34 -22 -235 -122 -300
-149 -106 -45 -291 -97 -420 -120 -38 -6 -88 -16 -110 -21 -168 -38 -455 -37
-650 1 -348 69 -434 96 -643 196 -196 95 -291 159 -437 294 -161 149 -265 271
-347 408 -22 37 -42 69 -44 71 -7 8 -63 -22 -85 -45 -12 -13 -28 -24 -35 -24
-29 0 -34 -27 -11 -58 12 -17 42 -59 66 -94 101 -144 271 -339 347 -399 31
-24 75 -59 98 -78 73 -60 328 -221 350 -221 6 0 116 -53 158 -76 67 -37 202
-77 455 -134 62 -15 355 -40 458 -40 104 0 391 25 450 40 22 5 74 17 115 26
120 26 346 100 372 121 8 7 66 37 129 66 120 57 265 148 361 226 31 25 86 70
122 100 36 29 66 57 66 62 0 4 28 38 63 76 70 76 133 157 197 253 24 36 50 71
57 78 13 14 85 158 138 277 105 235 178 588 180 860 0 120 -12 140 -91 149
-31 4 -592 6 -1247 6 -681 -1 -1193 2 -1198 7 -5 5 -8 128 -7 273 l3 264 50
12 c28 6 113 26 190 44 77 17 154 37 170 44 17 7 57 19 90 26 33 7 123 27 200
46 77 18 176 40 220 49 44 9 152 34 240 55 88 21 203 48 255 59 52 12 122 28
155 36 158 36 264 60 445 101 235 53 260 65 260 129 0 67 -58 103 -136 84 -94
-22 -201 -46 -349 -78 -55 -12 -113 -28 -130 -35 -29 -14 -118 -36 -310 -77
-49 -10 -155 -35 -235 -54 -80 -19 -165 -39 -190 -44 -25 -6 -92 -21 -150 -35
-58 -13 -139 -32 -180 -41 -84 -18 -272 -62 -430 -99 -58 -14 -118 -26 -135
-28 l-30 -3 -3 159 c-2 105 1 163 9 172 6 7 36 18 67 24 31 6 71 17 87 25 17
7 53 18 80 24 28 5 97 21 155 35 58 13 139 31 180 40 41 9 91 21 110 26 34 9
126 30 370 85 63 14 131 30 150 35 19 5 69 17 110 26 41 9 120 26 175 39 55
12 145 33 200 45 196 44 390 91 410 99 40 17 92 31 112 31 28 0 63 45 63 81 0
58 -69 100 -130 80z"/>
<path d="M463 2153 c-57 -19 -73 -29 -73 -44 0 -24 57 -190 69 -202 14 -14
153 53 147 70 -3 7 -17 52 -32 100 -14 49 -29 91 -33 94 -3 4 -39 -5 -78 -18z"/>
<path d="M1992 490 c-127 -4 -145 -7 -158 -24 -20 -28 -17 -69 6 -94 l21 -22
679 0 679 0 20 26 c12 15 21 33 21 40 0 27 -24 65 -44 69 -29 7 -1050 11
-1224 5z"/>
</g>
</svg>
