<svg id="Layer_3" enable-background="new 0 0 64 64" height="512" viewBox="0 0 64 64" width="512" xmlns="http://www.w3.org/2000/svg"><path d="m56.98 30.726c-.041-.925-.292-1.835-.746-2.717.497-.964.766-1.971.766-3.009 0-5.961-8.757-10.893-20.888-11.834-.499-.721-1.186-1.295-1.985-1.674 1.813-1.854 2.873-4.37 2.873-6.992v-.5h-2v.5c0 1.955-.737 3.836-2.011 5.286-.115-3.76-3.202-6.786-6.989-6.786-.552 0-1 .447-1 1v2c0 2.698 1.537 5.04 3.779 6.208-.334.284-.641.597-.891.958-12.131.941-20.888 5.873-20.888 11.834 0 1.044.265 2.053.765 3.013-.453.881-.704 1.79-.745 2.714-3.93 3.269-6.02 7.154-6.02 11.273 0 10.477 13.907 19 31 19s31-8.523 31-19c0-4.118-2.091-8.004-6.02-11.274zm-1.98 12.274c0 5.421-10.533 10-23 10s-23-4.579-23-10c0-.353.056-.706.147-1.058 3.855 4.196 12.527 7.058 22.853 7.058s18.998-2.862 22.853-7.058c.091.352.147.705.147 1.058zm0-6c0 5.421-10.533 10-23 10s-23-4.579-23-10c0-.353.056-.706.147-1.058 3.855 4.196 12.527 7.058 22.853 7.058 1.563 0 3.128-.071 4.659-.206.429.121.873.206 1.341.206h.021c.939 1.248 2.41 2 3.979 2 2.528 0 4.602-1.893 4.932-4.332 3.52-1.237 6.217-2.849 7.926-4.704.088.344.142.69.142 1.036zm-22-4c0-.227.036-.469.114-.764.082-.311.01-.641-.192-.889-.203-.248-.507-.386-.833-.365-.049.003-.097.009-.147.017-.662-.019-1.267-.365-1.627-.935-.285-.45-.875-.6-1.339-.334-.315.179-.643.27-.976.27-.621 0-1.066-.283-1.331-.521-.38-.342-.958-.342-1.338 0-.265.238-.71.521-1.331.521-.585 0-1.142-.267-1.528-.731-.244-.293-.634-.425-1.004-.332-.18.042-.329.063-.468.063-.684 0-1.314-.35-1.685-.936-.285-.45-.875-.6-1.339-.334-.854.485-1.851.285-2.467-.417-.171-.193-.411-.313-.669-.335-1.049-.084-1.84-.935-1.84-1.978s.791-1.894 1.839-1.979c.258-.021.498-.142.669-.335.618-.701 1.613-.901 2.467-.417.466.265 1.055.118 1.339-.334.372-.585 1.002-.935 1.686-.935.139 0 .288.021.468.063.37.093.76-.039 1.004-.332.387-.466.958-.703 1.532-.705-.622.834-1.004 1.856-1.004 2.974 0 2.757 2.243 5 5 5 1.641 0 3.088-.806 4-2.031.912 1.225 2.359 2.031 4 2.031 2.757 0 5-2.243 5-5 0-1.118-.382-2.141-1.004-2.974.573.003 1.145.24 1.532.706.244.293.631.425 1.004.332.18-.043.329-.064.468-.064.684 0 1.314.35 1.685.936.285.45.875.6 1.339.334.855-.485 1.85-.285 2.467.417.171.193.411.313.669.335 1.049.084 1.84.935 1.84 1.978s-.791 1.894-1.839 1.979c-.258.021-.498.142-.669.335-.617.702-1.612.903-2.467.417-.464-.265-1.054-.116-1.339.334-.372.585-1.002.935-1.686.935-.139 0-.288-.021-.468-.063-.372-.092-.763.04-1.006.335-.05.061-.111.11-.218.206-.196.177-.313.423-.329.686-.004.079-.014.157-.024.234-.053.405.146.801.502 1.001.952.534 1.543 1.531 1.543 2.601 0 .603-.178 1.183-.514 1.679-.174.257-.219.58-.121.875.097.294.326.527.619.63 1.206.421 2.016 1.553 2.016 2.816 0 1.654-1.346 3-3 3-1.07 0-2.067-.591-2.603-1.543-.2-.355-.599-.547-1-.502l-.116.016c-.092.013-.184.029-.281.029-1.654 0-3-1.346-3-3 0-.343.068-.698.204-1.055.184-.484-.033-1.029-.5-1.255-1.051-.507-1.704-1.538-1.704-2.69zm6-10c0 1.654-1.346 3-3 3s-3-1.346-3-3 1.346-3 3-3 3 1.346 3 3zm-8 0c0 1.654-1.346 3-3 3s-3-1.346-3-3 1.346-3 3-3 3 1.346 3 3zm24 8c0 2.879-3.046 5.676-8.211 7.598-.343-1.155-1.092-2.158-2.119-2.808.056-.146.085-.3.127-.45 4.556-1.279 8.009-3.157 10.058-5.389.09.349.145.699.145 1.049zm0-6c0 3.241-3.824 6.336-10.067 8.224-.137-.854-.492-1.656-1.029-2.326.731-.17 1.397-.542 1.928-1.079 1.336.425 2.852.065 3.885-.897 1.869-.344 3.283-1.995 3.283-3.922s-1.414-3.578-3.284-3.921c-1.033-.963-2.549-1.325-3.885-.897-.821-.831-1.943-1.281-3.184-1.164-1.223-1.095-3.08-1.295-4.529-.53-.486-.229-1.015-.371-1.571-.432.285-.629.453-1.322.453-2.056 0-.258-.038-.506-.076-.754 10.245 1.01 18.076 5.168 18.076 9.754zm-28-19v-.899c2.279.465 4 2.484 4 4.899v.899c-2.279-.464-4-2.484-4-4.899zm8 10c0 1.654-1.346 3-3 3s-3-1.346-3-3 1.346-3 3-3 3 1.346 3 3zm-7.924-.754c-.038.248-.076.496-.076.754 0 .734.168 1.427.454 2.055-.556.062-1.085.203-1.571.432-1.449-.766-3.306-.566-4.53.53-1.24-.122-2.362.332-3.184 1.164-1.336-.428-2.853-.065-3.885.897-1.87.344-3.284 1.995-3.284 3.922s1.414 3.578 3.284 3.921c1.032.963 2.548 1.322 3.885.897.822.832 1.949 1.287 3.184 1.164 1.252 1.12 3.195 1.322 4.647.472.951.557 2.12.698 3.169.364.507.514 1.139.877 1.833 1.056-.002.042-.002.084-.002.126 0 .704.153 1.377.422 1.993-12.212-.139-22.422-4.656-22.422-9.993 0-4.586 7.831-8.744 18.076-9.754zm4.924 21.754c.339 0 .674-.007 1.009-.013.03.022.056.048.087.07-.064.314-.096.63-.096.943 0 1.109.375 2.125.989 2.955-.662.026-1.325.045-1.989.045-12.467 0-23-4.579-23-10 0-.353.056-.706.147-1.058 3.855 4.196 12.527 7.058 22.853 7.058zm0 22c-15.991 0-29-7.626-29-17 0-3.179 1.503-6.239 4.363-8.927.111.318.241.632.401.941-.497.967-.764 1.968-.764 2.986 0 1.044.265 2.053.765 3.013-.498.968-.765 1.969-.765 2.987 0 6.729 10.981 12 25 12s25-5.271 25-12c0-1.018-.267-2.02-.764-2.988.499-.959.764-1.968.764-3.012 0-1.016-.266-2.016-.761-2.982.16-.31.292-.624.402-.942 2.857 2.689 4.359 5.748 4.359 8.924 0 9.374-13.009 17-29 17z"/></svg>