<svg id="Capa_1" enable-background="new 0 0 512 512" height="512" viewBox="0 0 512 512" width="512" xmlns="http://www.w3.org/2000/svg"><g><path d="m447.297 152.962-17.747-48.833c-3.634-10.02-11.951-16.354-21.706-16.533-9.711-.144-18.54 5.991-22.477 15.721l-4.341 10.764c-4.388-3.659-9.273-6.786-14.595-9.269-16.095-7.505-34.105-8.302-50.709-2.25-5.113 1.859-10.281 3.469-15.489 4.842-.043.011-.085.016-.128.027-.029.008-.056.019-.085.027-14.42 3.781-29.162 5.699-44.012 5.699s-29.594-1.918-44.013-5.699c-.029-.008-.056-.02-.085-.027-.042-.011-.084-.016-.127-.027-5.207-1.372-10.373-2.981-15.485-4.84-16.628-6.056-34.648-5.256-50.74 2.256-5.312 2.48-10.189 5.603-14.571 9.258l-4.343-10.769c-3.877-9.586-12.506-15.715-22.064-15.715-.135 0-.272.001-.408.003-9.755.179-18.072 6.514-21.701 16.521l-17.784 48.852c-3.636 10.029-1.311 20.236 6.069 26.638 4.205 3.648 9.518 5.512 15.026 5.512 4.104 0 8.316-1.034 12.26-3.135l10.234-5.455c4.023 22.567 19.589 42.473 42.614 50.866 11.906 4.346 24 7.923 36.233 10.755v57.717c0 19.603 13.548 36.097 31.764 40.594v138.354c0 20.503 16.652 37.184 37.121 37.184s37.121-16.681 37.121-37.184v-28.658c0-5.522-4.478-10-10-10s-10 4.478-10 10v28.658c0 9.475-7.681 17.184-17.121 17.184s-17.121-7.709-17.121-17.184v-147.143c0-5.522-4.478-10-10-10-12.001 0-21.764-9.781-21.764-21.805v-53.784c6.383 1.035 12.797 1.864 19.237 2.491v28.985c0 5.522 4.478 10 10 10s10-4.478 10-10v-27.7c3.212.101 6.427.169 9.647.169 3.211 0 6.416-.068 9.618-.168v27.699c0 5.522 4.478 10 10 10s10-4.478 10-10v-28.982c6.45-.627 12.874-1.458 19.267-2.494v53.784c0 12.023-9.763 21.805-21.764 21.805-5.522 0-10 4.478-10 10v28.657c0 5.522 4.478 10 10 10s10-4.478 10-10v-19.868c18.216-4.497 31.764-20.991 31.764-40.594v-57.717c12.233-2.833 24.327-6.409 36.233-10.755h-.001c23.025-8.395 38.591-28.301 42.615-50.866l10.235 5.455c3.944 2.102 8.155 3.136 12.259 3.136 5.512 0 10.828-1.867 15.033-5.521 7.375-6.41 9.684-16.621 6.031-26.638zm-358.66 11.371c-1.897 1.012-3.728 1.075-4.775.167-1.006-.873-1.142-2.591-.377-4.701l17.784-48.852c.764-2.108 1.955-3.331 3.269-3.354h.042c1.373 0 2.721 1.227 3.521 3.204l8.282 20.536c-2.021 3.453-3.756 7.104-5.15 10.941-1.399 3.849-2.399 7.745-3.059 11.646zm265.635 44.274c-.001.001-.003.001-.004.002-31.668 11.561-64.727 17.422-98.26 17.422-18.985 0-37.817-1.883-56.333-5.611-.312-.083-.63-.15-.953-.202-13.862-2.841-27.546-6.708-40.978-11.611-24.027-8.758-36.46-35.448-27.714-59.501 1.427-3.929 3.356-7.583 5.706-10.914.062-.087.126-.171.185-.259 4.581-6.4 10.753-11.562 18.099-14.991 6.26-2.922 12.933-4.392 19.623-4.392 5.329 0 10.67.934 15.818 2.809 2.545.925 5.103 1.792 7.671 2.61l-7.969 29.767c-1.428 5.335 1.739 10.817 7.074 12.246.866.231 1.736.343 2.592.343 4.416 0 8.458-2.948 9.654-7.417l7.993-29.855c9.746 2.039 19.608 3.32 29.533 3.835v30.861c0 5.522 4.478 10 10 10s10-4.478 10-10v-30.861c9.925-.515 19.786-1.797 29.532-3.835l7.993 29.855c1.196 4.469 5.237 7.417 9.654 7.417.855 0 1.726-.111 2.592-.343 5.335-1.429 8.502-6.911 7.074-12.246l-7.969-29.767c2.571-.818 5.132-1.686 7.679-2.613 11.59-4.226 24.166-3.662 35.414 1.582 7.358 3.432 13.538 8.598 18.124 15.004.05.075.105.147.158.221 2.36 3.339 4.297 7.004 5.728 10.945 8.745 24.051-3.689 50.741-27.716 59.499zm73.875-44.104c-1.045.906-2.871.842-4.767-.169l-19.536-10.413c-.66-3.901-1.659-7.796-3.058-11.644-1.395-3.839-3.131-7.491-5.152-10.944l8.279-20.527c.812-2.006 2.21-3.266 3.566-3.213 1.313.023 2.505 1.246 3.271 3.361l17.754 48.85c.773 2.118.642 3.83-.357 4.699z"/><path d="m195.847 76.396c1.943 2.796 5.056 4.294 8.221 4.294 1.969 0 3.958-.58 5.698-1.789 4.535-3.152 5.656-9.384 2.505-13.919-3.445-4.957-3.445-13.987-.022-18.912 8.215-11.722 8.215-30.087 0-41.809-3.169-4.521-9.405-5.619-13.929-2.45-4.522 3.17-5.619 9.405-2.45 13.929 3.457 4.933 3.457 13.919-.022 18.884-8.275 11.907-8.275 29.865-.001 41.772z"/><path d="m247.81 76.415c1.944 2.785 5.05 4.275 8.207 4.275 1.977 0 3.974-.585 5.717-1.803 4.528-3.162 5.635-9.396 2.473-13.924-3.455-4.948-3.455-13.959-.009-18.894 8.215-11.722 8.215-30.087 0-41.809-3.17-4.521-9.405-5.619-13.929-2.45-4.522 3.17-5.619 9.405-2.45 13.929 3.457 4.933 3.457 13.919-.009 18.865-8.324 11.919-8.324 29.894 0 41.811z"/><path d="m299.758 76.415c1.944 2.785 5.051 4.275 8.207 4.275 1.977 0 3.974-.585 5.717-1.803 4.528-3.162 5.635-9.396 2.473-13.924-3.455-4.948-3.455-13.959.004-18.912 8.168-11.712 8.168-30.06 0-41.771-3.159-4.529-9.391-5.641-13.923-2.481-4.529 3.159-5.641 9.393-2.481 13.923 3.447 4.942 3.447 13.946.004 18.884-8.325 11.917-8.325 29.892-.001 41.809z"/><path d="m283.129 391.231c-5.522 0-10 4.506-10 10.028s4.478 10 10 10 10-4.478 10-10v-.057c0-5.522-4.477-9.971-10-9.971z"/></g></svg>