
<svg version="1.0" xmlns="http://www.w3.org/2000/svg"
 width="172.000000pt" height="173.000000pt" viewBox="0 0 172.000000 173.000000"
 preserveAspectRatio="xMidYMid meet">

<g transform="translate(0.000000,173.000000) scale(0.100000,-0.100000)"
fill="#000000" stroke="none">
<path d="M670 1310 c0 -80 -4 -130 -10 -130 -6 0 -10 49 -10 126 0 112 -2 125
-17 122 -9 -2 -21 -18 -26 -38 -5 -19 -12 -37 -16 -40 -19 -13 -31 -82 -31
-180 l0 -108 40 -40 40 -40 0 -386 0 -386 60 0 60 0 0 380 0 381 25 24 c45 46
65 109 65 206 0 49 -4 89 -9 89 -10 0 -42 70 -51 110 -3 14 -13 26 -23 28 -15
3 -17 -8 -17 -122 0 -77 -4 -126 -10 -126 -6 0 -10 50 -10 130 l0 130 -30 0
-30 0 0 -130z m50 -15 c0 -128 1 -135 20 -135 19 0 20 7 20 133 1 127 8 147
25 67 4 -19 16 -47 26 -62 15 -20 19 -44 19 -107 0 -88 -15 -131 -64 -184
l-26 -28 0 -375 0 -374 -40 0 -40 0 0 380 0 380 -40 44 -40 43 0 91 c0 72 6
108 28 174 l27 83 3 -132 c2 -125 4 -133 22 -133 19 0 20 7 20 128 0 130 2
142 27 142 10 0 13 -29 13 -135z"/>
<path d="M1070 820 l0 -610 60 0 60 0 0 314 c0 241 3 315 12 318 9 3 14 60 16
219 l4 214 -57 78 c-37 50 -63 77 -76 77 -19 0 -19 -14 -19 -610z m82 524 l49
-69 -4 -205 c-2 -136 -7 -212 -15 -227 -9 -16 -12 -105 -12 -317 l0 -296 -38
0 -39 0 -6 437 c-10 638 -9 755 5 751 6 -2 33 -35 60 -74z"/>
</g>
</svg>
